<?xml version="1.0" encoding="UTF-8"?>
<!-- Generator: Adobe Illustrator 16.0.0, SVG Export Plug-In . SVG Version: 6.00 Build 0)  -->
<!DOCTYPE svg PUBLIC "-//W3C//DTD SVG 1.1//EN" "http://www.w3.org/Graphics/SVG/1.1/DTD/svg11.dtd">
<svg version="1.1" id="Layer_1" xmlns="http://www.w3.org/2000/svg" xmlns:xlink="http://www.w3.org/1999/xlink" x="0px" y="0px" width="280px" height="70px" viewBox="-70 0 280 70" enable-background="new -70 0 280 70" xml:space="preserve">
<g>
	<g>
		<path fill="#282D32" stroke="#282D32" stroke-width="0.25" stroke-miterlimit="10" d="M-43.226,13.141h2.401l2.307,7.134    l2.307-7.134h2.401v16.481h-2.236V18.368l-2.449,7.275h-0.047l-2.448-7.275v11.254h-2.237L-43.226,13.141L-43.226,13.141z"/>
	</g>
	<g>
		<path fill="#282D32" stroke="#282D32" stroke-width="0.25" stroke-miterlimit="10" d="M-23.348,13.095h2.495l3.273,16.527h-2.354    l-0.66-3.674h-3.108l-0.659,3.674h-2.26L-23.348,13.095z M-20.947,23.854l-1.201-6.616l-1.201,6.616H-20.947z"/>
	</g>
	<g>
		<path fill="#282D32" stroke="#282D32" stroke-width="0.25" stroke-miterlimit="10" d="M-10.363,13.141h2.331v7.746l3.037-7.746    h2.542l-3.061,7.11l3.25,9.371h-2.52l-2.378-6.78l-0.871,2.071v4.709h-2.331L-10.363,13.141L-10.363,13.141z"/>
	</g>
	<g>
		<path fill="#282D32" stroke="#282D32" stroke-width="0.25" stroke-miterlimit="10" d="M4.934,13.141h6.101v2.19H7.266v4.897h3.365    v2.188H7.266v5.015h3.836v2.19H4.934V13.141z"/>
	</g>
	<g>
		<path fill="#282D32" stroke="#282D32" stroke-width="0.25" stroke-miterlimit="10" d="M18.695,13.141h2.685    c1.506,0,2.778,0.425,3.647,1.296c0.849,0.871,1.343,2.119,1.343,3.838v0.164c0,2.189-0.918,3.626-2.213,4.403l2.495,6.78h-2.495    l-2.214-6.028c-0.094,0-0.211,0.024-0.305,0.024h-0.613v6.004h-2.33V13.141L18.695,13.141z M21.426,21.522    c1.555,0,2.614-0.94,2.614-3.06V18.32c0-2.259-1.13-3.013-2.685-3.013h-0.33v6.215H21.426z"/>
	</g>
	<g>
		<path fill="#282D32" stroke="#282D32" stroke-width="0.25" stroke-miterlimit="10" d="M36.469,29.009v-2.4    c1.037,0.636,1.79,0.965,2.637,0.965c1.062,0,1.789-0.659,1.789-1.86c0-0.8-0.258-1.577-1.789-3.39    c-2.069-2.425-2.775-3.508-2.775-5.297v-0.023c0-2.402,1.646-4.003,3.838-4.003c1.036,0,1.789,0.235,2.475,0.589v2.4    c-0.896-0.541-1.531-0.8-2.285-0.8c-0.94,0-1.694,0.659-1.694,1.742c0,0.848,0.308,1.46,1.813,3.25    c2.188,2.588,2.754,3.743,2.754,5.509v0.022c0,2.448-1.694,4.051-3.86,4.051C38.282,29.764,37.34,29.48,36.469,29.009z"/>
	</g>
	<g>
		<path fill="#282D32" stroke="#282D32" stroke-width="0.25" stroke-miterlimit="10" d="M-6.406,36.605    c-0.076-0.366-0.29-0.6-0.688-0.6c-0.612,0-1.27,0.368-1.652,2.082c-0.046,0.229-0.903,4.285-0.933,4.516    c0,0-0.643-0.03-0.98-0.03c-0.352,0-0.995,0.03-0.995,0.03c0.275-1.104,0.766-3.504,0.995-4.605c0.26-1.3,0.383-1.807,0.015-1.807    c-0.535,0-0.872,0.935-1.04,2.188l-0.582-0.062c0.138-1.394,0.765-3.061,2.25-3.061c0.918,0,1.301,0.535,1.393,1.271    c0.458-0.965,1.178-1.271,1.774-1.271c0.857,0,1.393,0.566,1.255,1.639c-0.123,1.023-0.643,1.453-1.301,1.453    c-0.535,0-1.01-0.336-0.872-1.041C-7.63,36.639-6.911,36.468-6.406,36.605z"/>
		<path fill="#282D32" stroke="#282D32" stroke-width="0.25" stroke-miterlimit="10" d="M-5.452,39.468    c0.23-1.897,1.423-4.208,3.841-4.208c1.805,0,2.876,0.934,2.693,3.092c-0.168,2.188-1.315,4.516-3.856,4.516    C-4.625,42.864-5.742,41.886-5.452,39.468z M-0.907,37.968c0.214-1.591-0.138-1.866-0.734-1.866c-0.903,0-1.5,1.592-1.806,3.947    c-0.214,1.622,0.153,1.975,0.72,1.975C-1.855,42.023-1.229,40.479-0.907,37.968z"/>
		<path fill="#282D32" stroke="#282D32" stroke-width="0.25" stroke-miterlimit="10" d="M2.842,39.729l0.551-1.914    c0.338-1.146,0.275-1.621-0.031-1.621c-0.521,0-0.887,0.936-1.041,2.188L1.742,38.32c0.138-1.395,0.75-3.062,2.25-3.062    c1.482,0,1.836,1.238,1.393,2.738L4.88,39.741c-0.478,1.604-0.274,2.188,0.214,2.188c0.781,0,1.471-1.162,2.053-3.935l0.535-2.524    c0,0,0.674,0.031,1.041,0.031c0.365,0,1.023-0.031,1.023-0.031c-0.123,0.382-0.949,3.75-1.059,4.208    c-0.428,1.76-0.291,2.25,0.383,2.25c1.227,0,2.203-1.99,2.479-3.731c0.077-0.49,0.107-0.872,0.093-1.241    c-0.062,0.018-0.151,0.029-0.246,0.029c-0.475,0-0.9-0.288-0.795-0.916c0.076-0.583,0.489-0.812,0.936-0.812    c0.796,0,1.041,0.749,0.855,2.034c-0.273,1.99-1.623,5.567-4.103,5.567c-1.192,0-1.79-0.504-1.759-1.741    c-0.566,1.192-1.424,1.741-2.387,1.741C2.613,42.864,2.246,41.762,2.842,39.729z"/>
	</g>
	<g>
		<polygon fill="#282D32" stroke="#282D32" stroke-width="0.25" stroke-miterlimit="10" points="-17.291,39.591 -43.226,39.591     -43.226,38.729 -17.291,38.729   "/>
	</g>
	<g>
		<polygon fill="#282D32" stroke="#282D32" stroke-width="0.25" stroke-miterlimit="10" points="43.227,39.591 17.29,39.591     17.29,38.729 43.227,38.729   "/>
	</g>
	<g>
		<path fill="#282D32" stroke="#282D32" stroke-width="0.25" stroke-miterlimit="10" d="M2.162,51.262L2.162,51.262    c0.661,0.008,4.591-0.361,6.061-2.425H2.162v-0.481h-9.809v1.762c0,0,6.825,1.949,2.885,5.66V57H4.57v-1.225    C4.57,55.775-0.516,53.52,2.162,51.262z"/>
	</g>
	<path fill="#282D32" stroke="#282D32" stroke-width="0.25" stroke-miterlimit="10" d="M-24.347,50.639h3.039v0.651h-2.323v1.056   h2.059v0.651h-2.059v1.096h2.353v0.652h-3.068L-24.347,50.639L-24.347,50.639z"/>
	<path fill="#282D32" stroke="#282D32" stroke-width="0.25" stroke-miterlimit="10" d="M-18.652,54.803   c-0.316,0-0.619-0.052-0.909-0.16c-0.29-0.104-0.557-0.271-0.803-0.494l0.434-0.519c0.2,0.172,0.401,0.306,0.604,0.396   c0.204,0.096,0.435,0.141,0.692,0.141c0.223,0,0.4-0.046,0.531-0.143c0.131-0.094,0.197-0.219,0.197-0.377v-0.011   c0-0.075-0.013-0.141-0.039-0.196c-0.025-0.058-0.073-0.109-0.141-0.162c-0.069-0.051-0.163-0.096-0.283-0.141   c-0.12-0.041-0.275-0.085-0.467-0.129c-0.22-0.051-0.415-0.109-0.585-0.174s-0.313-0.143-0.429-0.232   c-0.116-0.094-0.204-0.207-0.265-0.34c-0.061-0.132-0.091-0.291-0.091-0.479V51.77c0-0.176,0.036-0.336,0.104-0.48   c0.071-0.146,0.167-0.271,0.288-0.376c0.123-0.104,0.27-0.187,0.441-0.242c0.172-0.062,0.359-0.09,0.563-0.09   c0.301,0,0.572,0.046,0.812,0.133c0.241,0.088,0.467,0.218,0.678,0.388l-0.387,0.545c-0.187-0.139-0.373-0.242-0.557-0.313   c-0.184-0.072-0.37-0.108-0.557-0.108c-0.211,0-0.375,0.047-0.493,0.143s-0.176,0.211-0.176,0.347v0.015   c0,0.076,0.014,0.146,0.042,0.209c0.027,0.061,0.077,0.112,0.15,0.162c0.073,0.049,0.172,0.096,0.3,0.139s0.29,0.088,0.485,0.137   c0.216,0.053,0.407,0.113,0.574,0.182c0.167,0.067,0.305,0.146,0.415,0.242c0.109,0.098,0.193,0.208,0.25,0.334   c0.057,0.128,0.085,0.275,0.085,0.443v0.012c0,0.191-0.036,0.363-0.107,0.516c-0.072,0.154-0.172,0.283-0.3,0.391   c-0.127,0.104-0.282,0.188-0.461,0.238C-18.239,54.775-18.437,54.803-18.652,54.803z"/>
	<path fill="#282D32" stroke="#282D32" stroke-width="0.25" stroke-miterlimit="10" d="M-15.06,51.309h-1.302v-0.67h3.332v0.67   h-1.302v3.438h-0.728V51.309z"/>
	<path fill="#282D32" stroke="#282D32" stroke-width="0.25" stroke-miterlimit="10" d="M12.421,54.177l1.414-1.2   c0.142-0.115,0.261-0.224,0.358-0.316c0.097-0.098,0.176-0.188,0.236-0.273c0.062-0.084,0.104-0.168,0.133-0.25   c0.025-0.082,0.041-0.171,0.041-0.264c0-0.204-0.063-0.359-0.19-0.475c-0.126-0.108-0.284-0.166-0.472-0.166   c-0.188,0-0.354,0.053-0.496,0.151c-0.146,0.103-0.295,0.257-0.454,0.464L12.48,51.45c0.098-0.138,0.194-0.261,0.299-0.368   c0.102-0.107,0.212-0.2,0.332-0.271c0.119-0.071,0.25-0.129,0.393-0.168s0.307-0.062,0.49-0.062c0.199,0,0.382,0.028,0.548,0.09   c0.167,0.06,0.31,0.144,0.429,0.249s0.213,0.234,0.279,0.389c0.066,0.148,0.1,0.315,0.1,0.502v0.01   c0,0.162-0.021,0.309-0.062,0.438c-0.043,0.134-0.107,0.259-0.196,0.38c-0.088,0.121-0.196,0.243-0.334,0.365   c-0.135,0.123-0.293,0.262-0.472,0.408l-0.848,0.704h1.955v0.634h-2.969v-0.57h-0.003V54.177z"/>
	<path fill="#282D32" stroke="#282D32" stroke-width="0.25" stroke-miterlimit="10" d="M18.094,54.814   c-0.27,0-0.514-0.058-0.732-0.164c-0.217-0.108-0.404-0.26-0.562-0.451c-0.155-0.192-0.274-0.415-0.358-0.672   c-0.084-0.256-0.127-0.53-0.127-0.823v-0.013c0-0.293,0.043-0.568,0.129-0.828c0.086-0.258,0.207-0.481,0.365-0.674   c0.153-0.191,0.344-0.344,0.562-0.455c0.221-0.109,0.467-0.166,0.734-0.166c0.271,0,0.517,0.056,0.732,0.164   c0.219,0.106,0.406,0.26,0.561,0.451c0.156,0.19,0.275,0.416,0.361,0.672s0.129,0.529,0.129,0.824v0.012   c0,0.293-0.043,0.566-0.129,0.826s-0.208,0.481-0.363,0.676c-0.154,0.189-0.346,0.344-0.564,0.453   C18.609,54.759,18.363,54.814,18.094,54.814z M18.105,54.164c0.16,0,0.304-0.037,0.432-0.114s0.234-0.18,0.326-0.311   c0.09-0.132,0.158-0.286,0.207-0.464c0.05-0.178,0.074-0.368,0.074-0.571v-0.013c0-0.203-0.025-0.396-0.076-0.571   c-0.051-0.179-0.123-0.334-0.211-0.468c-0.09-0.133-0.201-0.237-0.332-0.315c-0.131-0.079-0.275-0.118-0.434-0.118   s-0.304,0.038-0.431,0.116c-0.127,0.074-0.236,0.179-0.326,0.31c-0.09,0.133-0.159,0.287-0.208,0.465   c-0.049,0.18-0.072,0.369-0.072,0.57v0.014c0,0.203,0.023,0.395,0.072,0.57c0.049,0.178,0.119,0.334,0.211,0.467   c0.094,0.136,0.202,0.238,0.332,0.316C17.801,54.126,17.945,54.164,18.105,54.164z"/>
	<path fill="#282D32" stroke="#282D32" stroke-width="0.25" stroke-miterlimit="10" d="M21.477,51.343l-0.738,0.206l-0.15-0.588   l1.104-0.354h0.504v4.138H21.48v-3.402H21.477z"/>
	<path fill="#282D32" stroke="#282D32" stroke-width="0.25" stroke-miterlimit="10" d="M23.413,54.177l1.414-1.2   c0.142-0.115,0.261-0.224,0.358-0.316c0.097-0.098,0.176-0.188,0.234-0.273c0.062-0.084,0.104-0.168,0.135-0.25   c0.024-0.082,0.041-0.171,0.041-0.264c0-0.204-0.063-0.359-0.191-0.475c-0.127-0.108-0.283-0.166-0.471-0.166   c-0.188,0-0.354,0.053-0.496,0.151c-0.146,0.103-0.293,0.257-0.455,0.464l-0.51-0.396c0.098-0.139,0.195-0.262,0.299-0.368   c0.103-0.106,0.213-0.2,0.332-0.271c0.119-0.072,0.25-0.129,0.394-0.168s0.306-0.062,0.489-0.062c0.201,0,0.383,0.027,0.55,0.09   c0.166,0.061,0.308,0.145,0.428,0.249c0.119,0.104,0.212,0.233,0.278,0.39c0.066,0.148,0.1,0.314,0.1,0.502v0.01   c0,0.162-0.021,0.308-0.064,0.438c-0.043,0.133-0.106,0.258-0.194,0.379c-0.087,0.122-0.199,0.244-0.334,0.366   c-0.138,0.123-0.292,0.261-0.474,0.408l-0.846,0.704h1.954v0.634h-2.969V54.18h-0.002V54.177z"/>
	<g>
		<g>
			<path fill="#282D32" stroke="#282D32" stroke-width="0.25" stroke-miterlimit="10" d="M30.242,13.141h2.339v2.34l-2.339,1.985     V13.141z"/>
		</g>
	</g>
</g>
<g opacity="0.95">
	<g>
		<path fill="#FFFFFF" stroke="#FFFFFF" stroke-width="0.25" stroke-miterlimit="10" d="M96.773,13.141h2.401l2.308,7.134    l2.307-7.134h2.4v16.481h-2.235V18.368l-2.449,7.275h-0.047l-2.448-7.275v11.254h-2.236V13.141L96.773,13.141z"/>
	</g>
	<g>
		<path fill="#FFFFFF" stroke="#FFFFFF" stroke-width="0.25" stroke-miterlimit="10" d="M116.652,13.095h2.494l3.273,16.527h-2.354    l-0.66-3.674h-3.108l-0.659,3.674h-2.26L116.652,13.095z M119.053,23.854l-1.201-6.616l-1.201,6.616H119.053z"/>
	</g>
	<g>
		<path fill="#FFFFFF" stroke="#FFFFFF" stroke-width="0.25" stroke-miterlimit="10" d="M129.637,13.141h2.331v7.746l3.037-7.746    h2.542l-3.061,7.11l3.25,9.371h-2.521l-2.378-6.78l-0.871,2.071v4.709h-2.33V13.141L129.637,13.141z"/>
	</g>
	<g>
		<path fill="#FFFFFF" stroke="#FFFFFF" stroke-width="0.25" stroke-miterlimit="10" d="M144.934,13.141h6.101v2.19h-3.769v4.897    h3.365v2.188h-3.365v5.015h3.836v2.19h-6.168V13.141z"/>
	</g>
	<g>
		<path fill="#FFFFFF" stroke="#FFFFFF" stroke-width="0.25" stroke-miterlimit="10" d="M158.695,13.141h2.685    c1.506,0,2.778,0.425,3.647,1.296c0.849,0.871,1.343,2.119,1.343,3.838v0.164c0,2.189-0.918,3.626-2.213,4.403l2.495,6.78h-2.495    l-2.214-6.028c-0.094,0-0.211,0.024-0.305,0.024h-0.613v6.004h-2.33V13.141L158.695,13.141z M161.426,21.522    c1.555,0,2.614-0.94,2.614-3.06V18.32c0-2.259-1.13-3.013-2.685-3.013h-0.33v6.215H161.426z"/>
	</g>
	<g>
		<path fill="#FFFFFF" stroke="#FFFFFF" stroke-width="0.25" stroke-miterlimit="10" d="M176.469,29.009v-2.4    c1.037,0.636,1.79,0.965,2.637,0.965c1.062,0,1.789-0.659,1.789-1.86c0-0.8-0.258-1.577-1.789-3.39    c-2.069-2.425-2.775-3.508-2.775-5.297v-0.023c0-2.402,1.646-4.003,3.838-4.003c1.036,0,1.789,0.235,2.475,0.589v2.4    c-0.896-0.541-1.531-0.8-2.285-0.8c-0.94,0-1.694,0.659-1.694,1.742c0,0.848,0.308,1.46,1.813,3.25    c2.188,2.588,2.754,3.743,2.754,5.509v0.022c0,2.448-1.694,4.051-3.86,4.051C178.282,29.764,177.34,29.48,176.469,29.009z"/>
	</g>
	<g>
		<path fill="#FFFFFF" stroke="#FFFFFF" stroke-width="0.25" stroke-miterlimit="10" d="M133.594,36.605    c-0.076-0.366-0.289-0.6-0.688-0.6c-0.612,0-1.27,0.368-1.652,2.082c-0.046,0.229-0.902,4.285-0.934,4.516    c0,0-0.643-0.03-0.979-0.03c-0.353,0-0.995,0.03-0.995,0.03c0.275-1.104,0.766-3.504,0.995-4.605    c0.261-1.3,0.384-1.807,0.015-1.807c-0.535,0-0.871,0.935-1.039,2.188l-0.582-0.062c0.138-1.394,0.765-3.061,2.25-3.061    c0.918,0,1.301,0.535,1.393,1.271c0.458-0.965,1.178-1.271,1.773-1.271c0.857,0,1.394,0.566,1.256,1.639    c-0.123,1.023-0.643,1.453-1.301,1.453c-0.535,0-1.01-0.336-0.873-1.041C132.37,36.639,133.089,36.468,133.594,36.605z"/>
		<path fill="#FFFFFF" stroke="#FFFFFF" stroke-width="0.25" stroke-miterlimit="10" d="M134.548,39.468    c0.229-1.897,1.423-4.208,3.841-4.208c1.805,0,2.877,0.934,2.693,3.092c-0.168,2.188-1.314,4.516-3.855,4.516    C135.375,42.864,134.258,41.886,134.548,39.468z M139.093,37.968c0.214-1.591-0.138-1.866-0.733-1.866    c-0.903,0-1.5,1.592-1.807,3.947c-0.214,1.622,0.153,1.975,0.721,1.975C138.145,42.023,138.771,40.479,139.093,37.968z"/>
		<path fill="#FFFFFF" stroke="#FFFFFF" stroke-width="0.25" stroke-miterlimit="10" d="M142.842,39.729l0.551-1.914    c0.338-1.146,0.275-1.621-0.031-1.621c-0.521,0-0.887,0.936-1.041,2.188l-0.578-0.062c0.138-1.395,0.75-3.062,2.25-3.062    c1.482,0,1.836,1.238,1.393,2.738l-0.505,1.744c-0.478,1.604-0.274,2.188,0.214,2.188c0.781,0,1.471-1.162,2.053-3.935    l0.535-2.524c0,0,0.674,0.031,1.041,0.031c0.365,0,1.023-0.031,1.023-0.031c-0.123,0.382-0.949,3.75-1.059,4.208    c-0.428,1.76-0.291,2.25,0.383,2.25c1.227,0,2.203-1.99,2.479-3.731c0.077-0.49,0.107-0.872,0.093-1.241    c-0.062,0.018-0.151,0.029-0.246,0.029c-0.475,0-0.9-0.288-0.795-0.916c0.076-0.583,0.489-0.812,0.936-0.812    c0.796,0,1.041,0.749,0.855,2.034c-0.273,1.99-1.623,5.567-4.103,5.567c-1.192,0-1.79-0.504-1.759-1.741    c-0.566,1.192-1.424,1.741-2.387,1.741C142.613,42.864,142.246,41.762,142.842,39.729z"/>
	</g>
	<g>
		<polygon fill="#FFFFFF" stroke="#FFFFFF" stroke-width="0.25" stroke-miterlimit="10" points="122.709,39.591 96.773,39.591     96.773,38.729 122.709,38.729   "/>
	</g>
	<g>
		<polygon fill="#FFFFFF" stroke="#FFFFFF" stroke-width="0.25" stroke-miterlimit="10" points="183.227,39.591 157.29,39.591     157.29,38.729 183.227,38.729   "/>
	</g>
	<g>
		<path fill="#FFFFFF" stroke="#FFFFFF" stroke-width="0.25" stroke-miterlimit="10" d="M142.162,51.262L142.162,51.262    c0.661,0.008,4.591-0.361,6.061-2.425h-6.061v-0.481h-9.809v1.762c0,0,6.824,1.949,2.885,5.66V57h9.332v-1.225    C144.57,55.775,139.484,53.52,142.162,51.262z"/>
	</g>
	<path fill="#FFFFFF" stroke="#FFFFFF" stroke-width="0.25" stroke-miterlimit="10" d="M115.652,50.639h3.039v0.651h-2.322v1.056   h2.059v0.651h-2.059v1.096h2.354v0.652h-3.068L115.652,50.639L115.652,50.639z"/>
	<path fill="#FFFFFF" stroke="#FFFFFF" stroke-width="0.25" stroke-miterlimit="10" d="M121.348,54.803   c-0.315,0-0.619-0.052-0.908-0.16c-0.291-0.104-0.558-0.271-0.803-0.494l0.434-0.519c0.199,0.172,0.4,0.306,0.604,0.396   c0.204,0.096,0.436,0.141,0.692,0.141c0.223,0,0.399-0.046,0.53-0.143c0.131-0.094,0.197-0.219,0.197-0.377v-0.011   c0-0.075-0.013-0.141-0.039-0.196c-0.025-0.058-0.072-0.109-0.141-0.162c-0.068-0.051-0.163-0.096-0.283-0.141   c-0.12-0.041-0.275-0.085-0.467-0.129c-0.221-0.051-0.415-0.109-0.585-0.174s-0.313-0.143-0.429-0.232   c-0.116-0.094-0.205-0.207-0.266-0.34c-0.061-0.132-0.091-0.291-0.091-0.479V51.77c0-0.176,0.036-0.336,0.104-0.48   c0.07-0.146,0.166-0.271,0.287-0.376c0.123-0.104,0.271-0.187,0.441-0.242c0.172-0.062,0.359-0.09,0.562-0.09   c0.302,0,0.572,0.046,0.812,0.133c0.241,0.088,0.467,0.218,0.678,0.388l-0.387,0.545c-0.188-0.139-0.373-0.242-0.557-0.313   c-0.185-0.072-0.37-0.108-0.557-0.108c-0.212,0-0.375,0.047-0.494,0.143c-0.117,0.096-0.176,0.211-0.176,0.347v0.015   c0,0.076,0.014,0.146,0.042,0.209c0.027,0.061,0.077,0.112,0.15,0.162c0.073,0.049,0.172,0.096,0.3,0.139s0.29,0.088,0.484,0.137   c0.217,0.053,0.408,0.113,0.574,0.182c0.168,0.067,0.306,0.146,0.416,0.242c0.108,0.098,0.192,0.208,0.25,0.334   c0.057,0.128,0.084,0.275,0.084,0.443v0.012c0,0.191-0.035,0.363-0.106,0.516c-0.072,0.154-0.172,0.283-0.3,0.391   c-0.127,0.104-0.282,0.188-0.461,0.238C121.762,54.775,121.562,54.803,121.348,54.803z"/>
	<path fill="#FFFFFF" stroke="#FFFFFF" stroke-width="0.25" stroke-miterlimit="10" d="M124.939,51.309h-1.301v-0.67h3.332v0.67   h-1.303v3.438h-0.729V51.309z"/>
	<path fill="#FFFFFF" stroke="#FFFFFF" stroke-width="0.25" stroke-miterlimit="10" d="M152.421,54.177l1.414-1.2   c0.142-0.115,0.261-0.224,0.358-0.316c0.097-0.098,0.176-0.188,0.236-0.273c0.062-0.084,0.104-0.168,0.133-0.25   c0.025-0.082,0.041-0.171,0.041-0.264c0-0.204-0.063-0.359-0.19-0.475c-0.126-0.108-0.284-0.166-0.472-0.166   c-0.188,0-0.354,0.053-0.496,0.151c-0.146,0.103-0.295,0.257-0.454,0.464l-0.511-0.397c0.098-0.138,0.194-0.261,0.299-0.368   c0.102-0.107,0.212-0.2,0.332-0.271c0.119-0.071,0.25-0.129,0.393-0.168s0.307-0.062,0.49-0.062c0.199,0,0.382,0.028,0.548,0.09   c0.167,0.06,0.31,0.144,0.429,0.249s0.213,0.234,0.279,0.389c0.066,0.148,0.1,0.315,0.1,0.502v0.01   c0,0.162-0.021,0.309-0.062,0.438c-0.043,0.134-0.107,0.259-0.196,0.38c-0.088,0.121-0.196,0.243-0.334,0.365   c-0.135,0.123-0.293,0.262-0.472,0.408l-0.848,0.704h1.955v0.634h-2.969v-0.57h-0.003V54.177z"/>
	<path fill="#FFFFFF" stroke="#FFFFFF" stroke-width="0.25" stroke-miterlimit="10" d="M158.094,54.814   c-0.27,0-0.514-0.058-0.732-0.164c-0.217-0.108-0.404-0.26-0.562-0.451c-0.155-0.192-0.274-0.415-0.358-0.672   c-0.084-0.256-0.127-0.53-0.127-0.823v-0.013c0-0.293,0.043-0.568,0.129-0.828c0.086-0.258,0.207-0.481,0.365-0.674   c0.153-0.191,0.344-0.344,0.562-0.455c0.221-0.109,0.467-0.166,0.734-0.166c0.271,0,0.517,0.056,0.732,0.164   c0.219,0.106,0.406,0.26,0.561,0.451c0.156,0.19,0.275,0.416,0.361,0.672s0.129,0.529,0.129,0.824v0.012   c0,0.293-0.043,0.566-0.129,0.826s-0.208,0.481-0.363,0.676c-0.154,0.189-0.346,0.344-0.564,0.453   C158.609,54.759,158.363,54.814,158.094,54.814z M158.105,54.164c0.16,0,0.304-0.037,0.432-0.114s0.234-0.18,0.326-0.311   c0.09-0.132,0.158-0.286,0.207-0.464c0.05-0.178,0.074-0.368,0.074-0.571v-0.013c0-0.203-0.025-0.396-0.076-0.571   c-0.051-0.179-0.123-0.334-0.211-0.468c-0.09-0.133-0.201-0.237-0.332-0.315c-0.131-0.079-0.275-0.118-0.434-0.118   s-0.304,0.038-0.431,0.116c-0.127,0.074-0.236,0.179-0.326,0.31c-0.09,0.133-0.159,0.287-0.208,0.465   c-0.049,0.18-0.072,0.369-0.072,0.57v0.014c0,0.203,0.023,0.395,0.072,0.57c0.049,0.178,0.119,0.334,0.211,0.467   c0.094,0.136,0.202,0.238,0.332,0.316C157.801,54.126,157.945,54.164,158.105,54.164z"/>
	<path fill="#FFFFFF" stroke="#FFFFFF" stroke-width="0.25" stroke-miterlimit="10" d="M161.477,51.343l-0.738,0.206l-0.15-0.588   l1.104-0.354h0.504v4.138h-0.715v-3.402H161.477z"/>
	<path fill="#FFFFFF" stroke="#FFFFFF" stroke-width="0.25" stroke-miterlimit="10" d="M163.413,54.177l1.414-1.2   c0.142-0.115,0.261-0.224,0.358-0.316c0.097-0.098,0.176-0.188,0.234-0.273c0.062-0.084,0.104-0.168,0.135-0.25   c0.024-0.082,0.041-0.171,0.041-0.264c0-0.204-0.063-0.359-0.191-0.475c-0.127-0.108-0.283-0.166-0.471-0.166   c-0.188,0-0.354,0.053-0.496,0.151c-0.146,0.103-0.293,0.257-0.455,0.464l-0.51-0.396c0.098-0.139,0.195-0.262,0.299-0.368   c0.103-0.106,0.213-0.2,0.332-0.271c0.119-0.072,0.25-0.129,0.394-0.168s0.306-0.062,0.489-0.062c0.201,0,0.383,0.027,0.55,0.09   c0.166,0.061,0.308,0.145,0.428,0.249c0.119,0.104,0.212,0.233,0.278,0.39c0.066,0.148,0.1,0.314,0.1,0.502v0.01   c0,0.162-0.021,0.308-0.064,0.438c-0.043,0.133-0.106,0.258-0.194,0.379c-0.087,0.122-0.199,0.244-0.334,0.366   c-0.138,0.123-0.292,0.261-0.474,0.408l-0.846,0.704h1.954v0.634h-2.969V54.18h-0.002V54.177z"/>
	<g>
		<g>
			<path fill="#FFFFFF" stroke="#FFFFFF" stroke-width="0.25" stroke-miterlimit="10" d="M170.242,13.141h2.339v2.34l-2.339,1.985     V13.141z"/>
		</g>
	</g>
</g>
</svg>